<svg width="227" height="46" viewBox="0 0 227 46" fill="none" xmlns="http://www.w3.org/2000/svg">
<circle cx="23.4718" cy="23.9435" r="21.9718" fill="#F67366"/>
<path d="M43.396 14.2597V20.6757H51.492V23.9877H43.396V30.5317H53.668V33.9717H39.076V10.8357H53.668V14.2597H43.396ZM64.4743 21.8437C65.2849 21.8437 65.9889 21.7423 66.5863 21.5397C67.1943 21.337 67.6903 21.0597 68.0743 20.7077C68.4689 20.345 68.7623 19.9183 68.9543 19.4277C69.1463 18.937 69.2423 18.3983 69.2423 17.8117C69.2423 16.6383 68.8529 15.737 68.0743 15.1077C67.3063 14.4783 66.1276 14.1637 64.5383 14.1637H61.7863V21.8437H64.4743ZM75.5463 33.9717H71.6583C70.9223 33.9717 70.3889 33.6837 70.0583 33.1077L65.1943 25.6997C65.0129 25.4223 64.8103 25.225 64.5863 25.1077C64.3729 24.9903 64.0529 24.9317 63.6263 24.9317H61.7863V33.9717H57.4823V10.8357H64.5383C66.1063 10.8357 67.4503 11.001 68.5703 11.3317C69.7009 11.6517 70.6236 12.105 71.3383 12.6917C72.0636 13.2783 72.5969 13.9823 72.9383 14.8037C73.2796 15.6143 73.4503 16.5103 73.4503 17.4917C73.4503 18.2703 73.3329 19.0063 73.0983 19.6997C72.8743 20.393 72.5436 21.0223 72.1063 21.5877C71.6796 22.153 71.1463 22.649 70.5063 23.0757C69.8769 23.5023 69.1569 23.8383 68.3463 24.0837C68.6236 24.2437 68.8796 24.4357 69.1143 24.6597C69.3489 24.873 69.5623 25.129 69.7543 25.4277L75.5463 33.9717ZM85.5648 22.4677C86.3541 22.4677 87.0421 22.3717 87.6288 22.1797C88.2154 21.977 88.7008 21.6943 89.0848 21.3317C89.4794 20.9583 89.7728 20.5103 89.9648 19.9877C90.1568 19.4543 90.2528 18.8623 90.2528 18.2117C90.2528 17.593 90.1568 17.033 89.9648 16.5317C89.7728 16.0303 89.4848 15.6037 89.1008 15.2517C88.7168 14.8997 88.2314 14.633 87.6448 14.4517C87.0581 14.2597 86.3648 14.1637 85.5648 14.1637H82.3488V22.4677H85.5648ZM85.5648 10.8357C87.1114 10.8357 88.4501 11.017 89.5808 11.3797C90.7114 11.7423 91.6448 12.249 92.3808 12.8997C93.1168 13.5503 93.6608 14.329 94.0128 15.2357C94.3754 16.1423 94.5568 17.1343 94.5568 18.2117C94.5568 19.3317 94.3701 20.361 93.9968 21.2997C93.6234 22.2277 93.0634 23.0277 92.3168 23.6997C91.5701 24.3717 90.6314 24.8943 89.5008 25.2677C88.3808 25.641 87.0688 25.8277 85.5648 25.8277H82.3488V33.9717H78.0448V10.8357H85.5648ZM96.7615 22.6597H105.05V25.9557H96.7615V22.6597ZM125.339 28.5157C125.574 28.5157 125.782 28.6063 125.963 28.7877L127.659 30.6277C126.72 31.7903 125.563 32.681 124.187 33.2997C122.822 33.9183 121.179 34.2277 119.259 34.2277C117.542 34.2277 115.995 33.9343 114.619 33.3477C113.254 32.761 112.086 31.945 111.115 30.8997C110.144 29.8543 109.398 28.6063 108.875 27.1557C108.363 25.705 108.107 24.121 108.107 22.4037C108.107 20.665 108.384 19.0757 108.939 17.6357C109.494 16.185 110.272 14.937 111.275 13.8917C112.288 12.8463 113.494 12.0357 114.891 11.4597C116.288 10.873 117.835 10.5797 119.531 10.5797C121.216 10.5797 122.71 10.857 124.011 11.4117C125.323 11.9663 126.438 12.6917 127.355 13.5877L125.915 15.5877C125.83 15.7157 125.718 15.8277 125.579 15.9237C125.451 16.0197 125.27 16.0677 125.035 16.0677C124.875 16.0677 124.71 16.025 124.539 15.9397C124.368 15.8437 124.182 15.7317 123.979 15.6037C123.776 15.465 123.542 15.3157 123.275 15.1557C123.008 14.9957 122.699 14.8517 122.347 14.7237C121.995 14.585 121.584 14.473 121.115 14.3877C120.656 14.2917 120.123 14.2437 119.515 14.2437C118.48 14.2437 117.531 14.4303 116.667 14.8037C115.814 15.1663 115.078 15.6997 114.459 16.4037C113.84 17.097 113.36 17.9503 113.019 18.9637C112.678 19.9663 112.507 21.113 112.507 22.4037C112.507 23.705 112.688 24.8623 113.051 25.8757C113.424 26.889 113.926 27.7423 114.555 28.4357C115.184 29.129 115.926 29.6623 116.779 30.0357C117.632 30.3983 118.55 30.5797 119.531 30.5797C120.118 30.5797 120.646 30.5477 121.115 30.4837C121.595 30.4197 122.032 30.3183 122.427 30.1797C122.832 30.041 123.211 29.865 123.563 29.6517C123.926 29.4277 124.283 29.1557 124.635 28.8357C124.742 28.7397 124.854 28.665 124.971 28.6117C125.088 28.5477 125.211 28.5157 125.339 28.5157ZM136.904 17.2997C138.12 17.2997 139.224 17.497 140.216 17.8917C141.218 18.2863 142.072 18.8463 142.776 19.5717C143.49 20.297 144.039 21.1823 144.424 22.2277C144.808 23.273 145 24.441 145 25.7317C145 27.033 144.808 28.2063 144.424 29.2517C144.039 30.297 143.49 31.1877 142.776 31.9237C142.072 32.6597 141.218 33.225 140.216 33.6197C139.224 34.0143 138.12 34.2117 136.904 34.2117C135.677 34.2117 134.562 34.0143 133.56 33.6197C132.557 33.225 131.698 32.6597 130.984 31.9237C130.28 31.1877 129.73 30.297 129.336 29.2517C128.952 28.2063 128.76 27.033 128.76 25.7317C128.76 24.441 128.952 23.273 129.336 22.2277C129.73 21.1823 130.28 20.297 130.984 19.5717C131.698 18.8463 132.557 18.2863 133.56 17.8917C134.562 17.497 135.677 17.2997 136.904 17.2997ZM136.904 31.1717C138.269 31.1717 139.277 30.713 139.928 29.7957C140.589 28.8783 140.92 27.5343 140.92 25.7637C140.92 23.993 140.589 22.6437 139.928 21.7157C139.277 20.7877 138.269 20.3237 136.904 20.3237C135.517 20.3237 134.488 20.793 133.816 21.7317C133.154 22.6597 132.824 24.0037 132.824 25.7637C132.824 27.5237 133.154 28.8677 133.816 29.7957C134.488 30.713 135.517 31.1717 136.904 31.1717ZM151.711 19.5717C152.041 19.241 152.388 18.937 152.751 18.6597C153.124 18.3717 153.513 18.1317 153.919 17.9397C154.335 17.737 154.777 17.5823 155.247 17.4757C155.716 17.3583 156.228 17.2997 156.783 17.2997C157.679 17.2997 158.473 17.4543 159.167 17.7637C159.86 18.0623 160.436 18.489 160.895 19.0437C161.364 19.5877 161.716 20.2437 161.951 21.0117C162.196 21.769 162.319 22.6063 162.319 23.5237V33.9717H158.367V23.5237C158.367 22.521 158.137 21.7477 157.679 21.2037C157.22 20.649 156.521 20.3717 155.583 20.3717C154.9 20.3717 154.26 20.5263 153.663 20.8357C153.065 21.145 152.5 21.5663 151.967 22.0997V33.9717H148.015V17.5557H150.431C150.943 17.5557 151.279 17.7957 151.439 18.2757L151.711 19.5717ZM169.773 19.5717C170.104 19.241 170.45 18.937 170.813 18.6597C171.186 18.3717 171.576 18.1317 171.981 17.9397C172.397 17.737 172.84 17.5823 173.309 17.4757C173.778 17.3583 174.29 17.2997 174.845 17.2997C175.741 17.2997 176.536 17.4543 177.229 17.7637C177.922 18.0623 178.498 18.489 178.957 19.0437C179.426 19.5877 179.778 20.2437 180.013 21.0117C180.258 21.769 180.381 22.6063 180.381 23.5237V33.9717H176.429V23.5237C176.429 22.521 176.2 21.7477 175.741 21.2037C175.282 20.649 174.584 20.3717 173.645 20.3717C172.962 20.3717 172.322 20.5263 171.725 20.8357C171.128 21.145 170.562 21.5663 170.029 22.0997V33.9717H166.077V17.5557H168.493C169.005 17.5557 169.341 17.7957 169.501 18.2757L169.773 19.5717ZM194.716 23.8757C194.716 23.3637 194.641 22.8837 194.492 22.4357C194.353 21.977 194.14 21.577 193.852 21.2357C193.564 20.8943 193.196 20.6277 192.748 20.4357C192.31 20.233 191.798 20.1317 191.212 20.1317C190.07 20.1317 189.169 20.457 188.508 21.1077C187.857 21.7583 187.441 22.681 187.26 23.8757H194.716ZM187.18 26.2597C187.244 27.1023 187.393 27.833 187.628 28.4517C187.862 29.0597 188.172 29.5663 188.556 29.9717C188.94 30.3663 189.393 30.665 189.916 30.8677C190.449 31.0597 191.036 31.1557 191.676 31.1557C192.316 31.1557 192.865 31.081 193.324 30.9317C193.793 30.7823 194.198 30.617 194.54 30.4357C194.892 30.2543 195.196 30.089 195.452 29.9397C195.718 29.7903 195.974 29.7157 196.22 29.7157C196.55 29.7157 196.796 29.8383 196.956 30.0837L198.092 31.5237C197.654 32.0357 197.164 32.4677 196.62 32.8197C196.076 33.161 195.505 33.4383 194.908 33.6517C194.321 33.8543 193.718 33.9983 193.1 34.0837C192.492 34.169 191.9 34.2117 191.324 34.2117C190.182 34.2117 189.121 34.025 188.14 33.6517C187.158 33.2677 186.305 32.7077 185.58 31.9717C184.854 31.225 184.284 30.3077 183.868 29.2197C183.452 28.121 183.243 26.8517 183.243 25.4117C183.243 24.2917 183.425 23.241 183.788 22.2597C184.15 21.2677 184.668 20.409 185.34 19.6837C186.022 18.9477 186.849 18.3663 187.82 17.9397C188.801 17.513 189.905 17.2997 191.132 17.2997C192.166 17.2997 193.121 17.465 193.996 17.7957C194.87 18.1263 195.622 18.6117 196.252 19.2517C196.881 19.881 197.372 20.6597 197.724 21.5877C198.086 22.505 198.267 23.5557 198.267 24.7397C198.267 25.337 198.204 25.7423 198.076 25.9557C197.948 26.1583 197.702 26.2597 197.34 26.2597H187.18ZM212.993 21.0277C212.876 21.177 212.759 21.2943 212.641 21.3797C212.535 21.465 212.375 21.5077 212.161 21.5077C211.959 21.5077 211.761 21.449 211.569 21.3317C211.377 21.2037 211.148 21.065 210.881 20.9157C210.615 20.7557 210.295 20.617 209.921 20.4997C209.559 20.3717 209.105 20.3077 208.561 20.3077C207.868 20.3077 207.26 20.4357 206.737 20.6917C206.215 20.937 205.777 21.2943 205.425 21.7637C205.084 22.233 204.828 22.8037 204.657 23.4757C204.487 24.137 204.401 24.889 204.401 25.7317C204.401 26.6063 204.492 27.385 204.673 28.0677C204.865 28.7503 205.137 29.3263 205.489 29.7957C205.841 30.2543 206.268 30.6063 206.769 30.8517C207.271 31.0863 207.836 31.2037 208.465 31.2037C209.095 31.2037 209.601 31.129 209.985 30.9797C210.38 30.8197 210.711 30.649 210.977 30.4677C211.244 30.2757 211.473 30.105 211.665 29.9557C211.868 29.7957 212.092 29.7157 212.337 29.7157C212.657 29.7157 212.897 29.8383 213.057 30.0837L214.193 31.5237C213.756 32.0357 213.281 32.4677 212.769 32.8197C212.257 33.161 211.724 33.4383 211.169 33.6517C210.625 33.8543 210.06 33.9983 209.473 34.0837C208.897 34.169 208.321 34.2117 207.745 34.2117C206.732 34.2117 205.777 34.025 204.881 33.6517C203.985 33.2677 203.201 32.713 202.529 31.9877C201.857 31.2623 201.324 30.377 200.929 29.3317C200.545 28.2757 200.353 27.0757 200.353 25.7317C200.353 24.5263 200.524 23.4117 200.865 22.3877C201.217 21.353 201.729 20.4623 202.401 19.7157C203.073 18.9583 203.905 18.3663 204.897 17.9397C205.889 17.513 207.031 17.2997 208.321 17.2997C209.548 17.2997 210.62 17.497 211.537 17.8917C212.465 18.2863 213.297 18.8517 214.033 19.5877L212.993 21.0277ZM222.143 34.2277C220.713 34.2277 219.615 33.8277 218.847 33.0277C218.089 32.217 217.711 31.1023 217.711 29.6837V20.5157H216.031C215.817 20.5157 215.636 20.4463 215.487 20.3077C215.337 20.169 215.263 19.961 215.263 19.6837V18.1157L217.903 17.6837L218.735 13.2037C218.788 12.9903 218.889 12.825 219.039 12.7077C219.188 12.5903 219.38 12.5317 219.615 12.5317H221.663V17.6997H226.047V20.5157H221.663V29.4117C221.663 29.9237 221.785 30.3237 222.031 30.6117C222.287 30.8997 222.633 31.0437 223.071 31.0437C223.316 31.0437 223.519 31.017 223.679 30.9637C223.849 30.8997 223.993 30.8357 224.111 30.7717C224.239 30.7077 224.351 30.649 224.447 30.5957C224.543 30.5317 224.639 30.4997 224.735 30.4997C224.852 30.4997 224.948 30.5317 225.023 30.5957C225.097 30.649 225.177 30.7343 225.263 30.8517L226.447 32.7717C225.871 33.2517 225.209 33.6143 224.463 33.8597C223.716 34.105 222.943 34.2277 222.143 34.2277Z" fill="white"/>
<path d="M0.5 21.9709C0.515367 13.1488 7.64583 5.97332 16.4991 5.97168C25.3525 5.97332 32.4829 13.1505 32.5 21.9709C32.4829 30.7945 25.3525 37.97 16.4991 37.9717C7.64583 37.97 0.515367 30.7945 0.5 21.9709ZM1.49546 21.9709C1.49717 30.2938 8.22808 36.9998 16.4991 37.0146C24.7702 36.9998 31.5028 30.2938 31.5028 21.9709C31.5028 13.6479 24.7702 6.94352 16.4991 6.9271C8.22979 6.94352 1.49888 13.6479 1.49546 21.9709Z" fill="white"/>
<path d="M10.0779 33.1801C8.41476 30.2811 7.40403 26.3299 7.40234 21.9717C7.40403 17.6134 8.41476 13.6623 10.0779 10.7633C11.736 7.87586 14.0921 5.97989 16.815 5.97168C19.5378 5.97989 21.8939 7.87586 23.5503 10.7633C25.2151 13.6623 26.2242 17.6151 26.2259 21.9717C26.2259 26.3299 25.2151 30.2811 23.5503 33.1801C21.8939 36.0675 19.5361 37.9651 16.815 37.9717C14.0921 37.9651 11.736 36.0691 10.0779 33.1801ZM22.69 32.7139C24.2534 29.9955 25.2405 26.1855 25.2388 21.9717C25.2405 17.7595 24.2534 13.9479 22.69 11.2295C21.1198 8.49964 19.0189 6.92213 16.815 6.92866C14.611 6.92048 12.5084 8.49964 10.9399 11.2295C9.37647 13.9479 8.38941 17.7595 8.38941 21.9717C8.38941 26.1855 9.37478 29.9955 10.9399 32.7139C12.5101 35.4437 14.611 37.0212 16.815 37.0147C19.0189 37.0229 21.1215 35.4437 22.69 32.7139Z" fill="white"/>
<path d="M17.44 6.5752H16.8125V37.3676H17.44V6.5752Z" fill="white"/>
<path d="M31.8721 22.2734H1.12695V22.8772H31.8721V22.2734Z" fill="white"/>
<path d="M29.9902 13.8208H3.00977V15.0283H29.9902V13.8208Z" fill="white"/>
<path d="M29.9902 30.1226H3.00977V30.7263H29.9902V30.1226Z" fill="white"/>
</svg>
